HIERARCHY
ROOT Hips
{
	OFFSET 0.00000 0.00000 0.00000
	CHANNELS 6 Xposition Yposition Zposition Zrotation Yrotation Xrotation 
	JOINT LHipJoint
	{
		OFFSET 0 0 0
		CHANNELS 3 Zrotation Yrotation Xrotation
		JOINT LeftUpLeg
		{
			OFFSET 1.62964 -1.40469 0.78906
			CHANNELS 3 Zrotation Yrotation Xrotation
			JOINT LeftLeg
			{
				OFFSET 2.29640 -6.30932 0.00000
				CHANNELS 3 Zrotation Yrotation Xrotation
				JOINT LeftFoot
				{
					OFFSET 2.29451 -6.30412 0.00000
					CHANNELS 3 Zrotation Yrotation Xrotation
					JOINT LeftToeBase
					{
						OFFSET 0.03611 -0.09921 1.56387
						CHANNELS 3 Zrotation Yrotation Xrotation
						End Site
						{
							OFFSET 0.00000 -0.00000 0.80291
						}
					}
				}
			}
		}
	}
	JOINT RHipJoint
	{
		OFFSET 0 0 0
		CHANNELS 3 Zrotation Yrotation Xrotation
		JOINT RightUpLeg
		{
			OFFSET -1.73712 -1.40469 0.78906
			CHANNELS 3 Zrotation Yrotation Xrotation
			JOINT RightLeg
			{
				OFFSET -2.28137 -6.26801 0.00000
				CHANNELS 3 Zrotation Yrotation Xrotation
				JOINT RightFoot
				{
					OFFSET -2.28681 -6.28298 0.00000
					CHANNELS 3 Zrotation Yrotation Xrotation
					JOINT RightToeBase
					{
						OFFSET -0.15927 -0.43759 1.61103
						CHANNELS 3 Zrotation Yrotation Xrotation
						End Site
						{
							OFFSET -0.00000 -0.00000 0.84630
						}
					}
				}
			}
		}
	}
	JOINT LowerBack
	{
		OFFSET 0 0 0
		CHANNELS 3 Zrotation Yrotation Xrotation
		JOINT Spine
		{
			OFFSET -0.04227 2.04338 -0.00225
			CHANNELS 3 Zrotation Yrotation Xrotation
			JOINT Spine1
			{
				OFFSET -0.02148 2.04482 -0.04273
				CHANNELS 3 Zrotation Yrotation Xrotation
				JOINT Neck
				{
					OFFSET 0 0 0
					CHANNELS 3 Zrotation Yrotation Xrotation
					JOINT Neck1
					{
						OFFSET 0.09180 1.44629 0.19359
						CHANNELS 3 Zrotation Yrotation Xrotation
						JOINT Head
						{
							OFFSET 0.00887 1.40645 0.14750
							CHANNELS 3 Zrotation Yrotation Xrotation
							End Site
							{
								OFFSET -0.00669 1.50671 0.03707
							}
						}
					}
				}
				JOINT LeftShoulder
				{
					OFFSET 0 0 0
					CHANNELS 3 Zrotation Yrotation Xrotation
					JOINT LeftArm
					{
						OFFSET 2.17674 1.86763 -0.06520
						CHANNELS 3 Zrotation Yrotation Xrotation
						JOINT LeftForeArm
						{
							OFFSET 4.65776 -0.00000 0.00000
							CHANNELS 3 Zrotation Yrotation Xrotation
							JOINT LeftHand
							{
								OFFSET 3.55539 -0.00000 0.00000
								CHANNELS 3 Zrotation Yrotation Xrotation
								JOINT LeftFingerBase
								{
									OFFSET 0 0 0
									CHANNELS 3 Zrotation Yrotation Xrotation
									JOINT LeftHandIndex1
									{
										OFFSET 0.70726 -0.00000 0.00000
										CHANNELS 3 Zrotation Yrotation Xrotation
										End Site
										{
											OFFSET 0.57022 -0.00000 0.00000
										}
									}
								}
								JOINT LThumb
								{
									OFFSET 0 0 0
									CHANNELS 3 Zrotation Yrotation Xrotation
									End Site
									{
										OFFSET 0.57892 -0.00000 0.57892
									}
								}
							}
						}
					}
				}
				JOINT RightShoulder
				{
					OFFSET 0 0 0
					CHANNELS 3 Zrotation Yrotation Xrotation
					JOINT RightArm
					{
						OFFSET -2.80694 1.55459 -0.32496
						CHANNELS 3 Zrotation Yrotation Xrotation
						JOINT RightForeArm
						{
							OFFSET -4.71925 -0.00000 -0.00000
							CHANNELS 3 Zrotation Yrotation Xrotation
							JOINT RightHand
							{
								OFFSET -3.56990 -0.00000 0.00000
								CHANNELS 3 Zrotation Yrotation Xrotation
								JOINT RightFingerBase
								{
									OFFSET 0 0 0
									CHANNELS 3 Zrotation Yrotation Xrotation
									JOINT RightHandIndex1
									{
										OFFSET -0.50776 -0.00000 0.00000
										CHANNELS 3 Zrotation Yrotation Xrotation
										End Site
										{
											OFFSET -0.40937 -0.00000 0.00000
										}
									}
								}
								JOINT RThumb
								{
									OFFSET 0 0 0
									CHANNELS 3 Zrotation Yrotation Xrotation
									End Site
									{
										OFFSET -0.41562 -0.00000 0.41562
									}
								}
							}
						}
					}
				}
			}
		}
	}
}
MOTION
Frames: 5
Frame Time: .0083333
16.8939 18.045 20.6979 0 0 0 0 0 0 -21 0 0 0 0 0 0 0 0 0 0 0 0 0 0 21 0 0 0 0 0 0 0 0 0 0 0 0 0 0 0 0 0 0 0 0 0 0 -16 0 0 21 0 0 11 0 0 0 -8 0 0 0 0 0 0 0 0 0 0 0 0 0 0 0 0 0 0 0 0 8 0 0 0 0 0 0 0 0 0 0 0 0 0 0 0 0 0
16.8939 18.0450 20.6979 173.5490 -3.1004 -153.3720 0.0000 0.0000 0.0000 -25.5944 -17.1577 -19.1048 0.2502 3.2184 8.8875 0.1513 -6.2756 -7.6502 0.4095 -4.1080 -11.3807 0.0000 0.0000 0.0000 14.7068 11.0857 -20.2072 -0.0873 -1.9053 5.2440 -0.6036 4.7622 -13.8335 -2.4685 9.7803 -28.2683 -11.8485 -2.8964 -30.1007 -1.2905 -0.3126 -1.1479 4.7570 -1.1938 14.4490 -0.5279 -1.2030 -5.9831 3.1808 -1.7340 2.7396 1.0341 -0.8040 1.9194 -0.0000 0.0000 0.0000 -84.3393 1.8858 20.3726 12.4585 -20.4886 -2.2602 -0.0000 -0.0000 4.2228 20.8500 -12.1498 -4.5830 -7.1250 0.0000 -0.0000 -4.4264 17.0309 2.9447 -0.0000 0.0000 0.0000 91.1594 -5.7247 4.5139 -16.7381 26.5112 -3.9697 0.0000 -0.0000 -1.5478 -10.3389 -52.6114 8.2475 7.1250 -0.0000 -0.0000 66.1336 -74.9774 -51.2657
16.8950 18.0457 20.6974 173.5190 -3.0606 -153.3380 0.0000 0.0000 0.0000 -25.6068 -17.2784 -19.0833 0.2492 3.2122 8.8700 0.1575 -6.2300 -7.7451 0.2840 -3.4276 -9.4716 0.0000 0.0000 0.0000 14.6295 11.2092 -20.4341 -0.1014 -2.0533 5.6530 -0.6095 4.7680 -13.9015 -2.3679 9.5937 -27.6709 -11.8214 -2.8915 -30.1207 -1.3401 -0.3127 -1.1594 4.6870 -1.1925 14.4436 -0.3988 -1.2246 -6.0356 3.1003 -1.7704 2.7638 0.9848 -0.8220 1.9345 -0.0000 -0.0000 0.0000 -84.2333 1.9031 20.5867 12.5453 -20.6174 -2.2907 -0.0000 -0.0000 4.0133 21.0361 -11.9729 -4.5615 -7.1250 0.0000 -0.0000 -4.2911 17.2016 2.8381 -0.0000 -0.0000 0.0000 91.1929 -5.6490 4.5143 -16.6987 26.4589 -3.9522 0.0000 -0.0000 -1.4907 -9.8022 -52.1693 7.7705 7.1250 -0.0000 -0.0000 64.8514 -74.6271 -49.7275
16.8968 18.0459 20.6974 173.5200 -3.0234 -153.2530 0.0000 0.0000 0.0000 -25.5809 -17.3504 -19.1451 0.2486 3.2083 8.8593 0.1638 -6.1781 -7.8402 0.3007 -3.5257 -9.7459 0.0000 0.0000 0.0000 14.6322 11.1643 -20.5879 -0.1032 -2.0711 5.7021 -0.5965 4.8242 -13.7509 -2.3520 9.5638 -27.5753 -11.6422 -2.7970 -30.1282 -1.4986 -0.2601 -1.2599 4.4375 -1.1535 14.3202 -0.2157 -1.2447 -6.0160 3.1271 -1.8183 2.8885 0.9603 -0.8429 1.9707 0.0000 -0.0000 0.0000 -83.9296 2.0935 20.8989 12.6523 -20.7757 -2.3285 -0.0000 -0.0000 3.7011 21.2628 -12.3195 -4.7462 -7.1250 0.0000 -0.0000 -4.1450 16.8129 2.7762 0.0000 -0.0000 0.0000 91.4387 -5.7916 4.4637 -16.7495 26.5264 -3.9748 0.0000 -0.0000 -1.3434 -8.8901 -51.7967 7.0075 7.1250 -0.0000 -0.0000 64.0935 -74.1520 -48.5313
16.9003 18.0458 20.6986 173.5200 -3.0889 -153.2280 0.0000 0.0000 0.0000 -25.5441 -17.3710 -19.1947 0.2510 3.2237 8.9022 0.1593 -6.1713 -7.7574 0.3287 -3.6846 -10.1909 0.0000 0.0000 0.0000 14.6697 11.1466 -20.5901 -0.1016 -2.0552 5.6583 -0.5899 4.7843 -13.6740 -2.3436 9.5477 -27.5243 -11.8132 -2.8563 -30.2044 -1.3493 -0.2689 -1.2007 4.6873 -1.1737 14.4249 -0.4765 -1.2395 -5.9279 3.2012 -1.7866 2.6602 1.0298 -0.8310 1.8842 0.0000 -0.0000 0.0000 -84.1490 1.9610 20.9157 12.6926 -20.8352 -2.3428 -0.0000 -0.0000 3.7915 21.3567 -12.6988 -4.9129 -7.1250 0.0000 -0.0000 -4.0939 16.4010 2.7786 0.0000 -0.0000 0.0000 91.2417 -5.6901 4.3258 -16.8099 26.6065 -4.0018 0.0000 -0.0000 -1.1970 -8.3074 -51.9052 6.5553 7.1250 -0.0000 -0.0000 64.7833 -73.9746 -48.9497
